<svg width="100" height="100" viewBox="0 0 100 100" fill="none" xmlns="http://www.w3.org/2000/svg">
<g filter="url(#filter0_b_1_1585)">
<path d="M50 100C77.6142 100 100 77.6142 100 50C100 22.3858 77.6142 0 50 0C22.3858 0 0 22.3858 0 50C0 77.6142 22.3858 100 50 100Z" fill="url(#paint0_linear_1_1585)" fill-opacity="0.1"/>
<path d="M99.5 50C99.5 77.3381 77.3381 99.5 50 99.5C22.6619 99.5 0.5 77.3381 0.5 50C0.5 22.6619 22.6619 0.5 50 0.5C77.3381 0.5 99.5 22.6619 99.5 50Z" stroke="url(#paint1_linear_1_1585)"/>
</g>
<defs>
<filter id="filter0_b_1_1585" x="-100" y="-100" width="300" height="300" filterUnits="userSpaceOnUse" color-interpolation-filters="sRGB">
<feFlood flood-opacity="0" result="BackgroundImageFix"/>
<feGaussianBlur in="BackgroundImage" stdDeviation="50"/>
<feComposite in2="SourceAlpha" operator="in" result="effect1_backgroundBlur_1_1585"/>
<feBlend mode="normal" in="SourceGraphic" in2="effect1_backgroundBlur_1_1585" result="shape"/>
</filter>
<linearGradient id="paint0_linear_1_1585" x1="50" y1="0" x2="50" y2="100" gradientUnits="userSpaceOnUse">
<stop stop-color="#626A88"/>
<stop offset="1" stop-color="#DC1FFF"/>
</linearGradient>
<linearGradient id="paint1_linear_1_1585" x1="50" y1="0" x2="50" y2="100" gradientUnits="userSpaceOnUse">
<stop stop-color="#ECF0FF" stop-opacity="0.1"/>
<stop offset="1" stop-color="#3B3F57" stop-opacity="0"/>
</linearGradient>
</defs>
</svg>
